<svg width="100%" height="100%" xmlns="http://www.w3.org/2000/svg">
  <!-- <rect width="100" height="100" fill="#CBFFFA" stroke="black" /> -->
  <defs>
    <marker id="arrowhead" markerWidth="10" markerHeight="7" 
    refX="0" refY="3.5" orient="auto">
      <polygon points="0 0, 10 3.5, 0 7" />
    </marker>
  </defs>
  <g>
    <path d="M 0 0 L 100 0 L 100 100 L 0 100 Z M 20 20 L 20 80 L 80 80 L 80 20 Z M 50 30 L 70 50 L 50 70 L 30 50 Z " fill="#B0E0E6" fill-rule="nonzero" stroke="black" />
    <line x1="20" y1="80" x2="30" y2="50" stroke-dasharray="3" stroke="black"/>
    <line x1="80" y1="80" x2="50" y2="70" stroke-dasharray="3" stroke="black"/>
    <line x1="120" y1="50" x2="160" y2="50" stroke="#000" stroke-width="2" marker-end="url(#arrowhead)" />
    <path transform="translate(200, 0)" d="M 0 0 L 100 0 L 100 100 L 0 100 Z M 20 20 L 20 80 L 30 50 L 50 30 L 70 50 L 50 70  L 80 80 L 80 20 Z" fill="#B0E0E6" fill-rule="nonzero" stroke="black" />
  </g>
</svg>