<svg width="100%" height="100%" xmlns="http://www.w3.org/2000/svg">
  <defs>
    <pattern id="grid" width="80" height="80" patternUnits="userSpaceOnUse">
      <path d="M 80 0 L 0 0 0 80" fill="none" stroke="gray" stroke-width="1"/>
    </pattern>
  </defs>

  <g transform="translate(160 160)">
  	<rect width="80" height="80" fill="red"/>
  	<rect x="80" width="80" height="80" fill="red"/>
  	<rect x="160" width="80" height="80" fill="red"/>
  	<rect x="240" width="80" height="80" fill="red"/>
  	<rect y="80" width="80" height="80" fill="red"/>
  	<rect y="80" x="80" width="80" height="80" fill="black"/>
  	<rect y="80" x="160" width="80" height="80" fill="red"/>
  	<rect y="160" width="80" height="80" fill="red"/>
  	<rect y="160" x="80" width="80" height="80" fill="black"/>
  	<rect y="160" x="160" width="80" height="80" fill="red"/>
  	<rect y="240" width="80" height="80" fill="red"/>
  	<rect y="240" x="80" width="80" height="80" fill="red"/>
  	<rect y="240" x="160" width="80" height="80" fill="red"/>
  	<rect y="240" x="240" width="80" height="80" fill="red"/>
  </g>

  <g transform="translate(160 160)">
  	<circle r="10" width="80" height="80" fill="green"/>
  	<circle r="10" cx="80" width="80" height="80" fill="green"/>
  	<circle r="10" cx="160" width="80" height="80" fill="green"/>
  	<circle r="10" cx="240" width="80" height="80" fill="green"/>
  	<circle r="10" cy="80" width="80" height="80" fill="green"/>
  	<circle r="10" cy="80" cx="160" width="80" height="80" fill="green"/>
  	<circle r="10" cy="160" width="80" height="80" fill="green"/>
  	<circle r="10" cy="160" cx="160" width="80" height="80" fill="green"/>
  	<circle r="10" cy="240" width="80" height="80" fill="green"/>
  	<circle r="10" cy="240" cx="80" width="80" height="80" fill="green"/>
  	<circle r="10" cy="240" cx="160" width="80" height="80" fill="green"/>
  	<circle r="10" cy="240" cx="240" width="80" height="80" fill="green"/>
  </g>

  <rect width="100%" height="100%" fill="url(#grid)" />
  <!-- HACK FOR ONLINE CONVERTERS -->
  <rect x="561" y="561" width="80" height="80" fill="transparent"/>
</svg>