<svg width="100%" height="100%" xmlns="http://www.w3.org/2000/svg">
  <path d="M 0 0 L 400 0 L 400 400 L 0 400 Z M 40 360 L 360 360 L 360 40 L 40 40 Z M 160 280 80 160 160 80 240 160 Z M 280 200 280 80 340 200 Z" fill="#B0E0E6" stroke="black" />
  <path d="M 40 40 L 360 40 L 360 93.4 L 280 80 L 280 120 L 160 80 L 80 160 L 146.6 360 L 40 360 Z" fill="#E83A3A" opacity="0.3" />
  <circle cx="40" cy="40" r="5" fill="#E83A3A" />
  <circle  cx="360" cy="40" r="4" fill="gray" />
  <circle  cx="360" cy="93.4" r="4" fill="gray" />
  <circle  cx="280" cy="80" r="5" fill="#A15EFF" />
  <circle  cx="280" cy="120" r="4" fill="gray" />
  <circle  cx="160" cy="80" r="5" fill="#A15EFF" />
  <circle  cx="80" cy="160" r="5" fill="#A15EFF" />
  <circle  cx="146.6" cy="360" r="4" fill="gray" />
  <circle  cx="40" cy="360" r="4" fill="gray" />
</svg>